<svg width="280" height="167" viewBox="0 0 280 167" fill="none" xmlns="http://www.w3.org/2000/svg">
<path d="M253.538 166.644C250.255 166.661 246.998 166.021 243.965 164.761C240.931 163.501 238.178 161.648 235.871 159.311L135.871 59.311L35.8709 159.311C31.0286 161.651 25.5613 162.364 20.2803 161.348C14.9996 160.334 10.1869 157.644 6.55661 153.678C2.92627 149.708 0.671937 144.678 0.12827 139.328C-0.41573 133.978 0.779941 128.594 3.53761 123.978L120.205 7.31131C124.891 2.62965 131.245 0 137.871 0C144.495 0 150.851 2.62965 155.538 7.31131L272.205 123.978C276.885 128.664 279.515 135.021 279.515 141.644C279.515 148.271 276.885 154.624 272.205 159.311C269.781 161.774 266.865 163.698 263.651 164.961C260.435 166.224 256.988 166.798 253.538 166.644Z" fill="#FF8906"/>
</svg>
