<svg width="1038" height="892" viewBox="0 0 1038 892" fill="none" xmlns="http://www.w3.org/2000/svg">
<path d="M503.364 574.123C469.146 539.905 450.3 494.414 450.307 446.022C450.3 418.888 456.15 392.782 467.711 368.406C468.423 366.91 469.699 365.757 471.26 365.2C472.821 364.644 474.539 364.73 476.037 365.439C477.532 366.153 478.683 367.429 479.239 368.99C479.795 370.55 479.711 372.267 479.005 373.765C468.246 396.448 462.797 420.757 462.801 446.022C462.801 491.076 480.346 533.434 512.199 565.287C544.062 597.15 586.414 614.689 631.477 614.698L781.388 614.703C826.443 614.704 868.801 597.159 900.654 565.306C932.525 533.452 950.068 491.094 950.068 446.04C950.065 400.974 932.529 358.616 900.666 326.753C868.813 294.9 826.454 277.363 781.397 277.369L631.469 277.356C610.69 277.36 590.414 281.088 571.213 288.443C567.995 289.678 564.363 288.089 563.147 284.845C562.853 284.079 562.712 283.263 562.734 282.443C562.755 281.622 562.938 280.815 563.273 280.065C563.607 279.316 564.086 278.64 564.682 278.076C565.278 277.512 565.979 277.071 566.746 276.779C587.379 268.871 609.159 264.864 631.47 264.862L781.399 264.875C829.792 264.866 875.286 283.701 909.504 317.918C943.722 352.136 962.564 397.639 962.564 446.04C962.564 545.932 881.287 627.192 781.39 627.196L631.478 627.193C583.077 627.191 537.582 608.341 503.364 574.123Z" fill="#FF8906"/>
<path d="M465.877 574.13C431.66 539.913 412.813 494.422 412.821 446.03C412.822 414.227 421.187 382.923 437.018 355.495C437.428 354.785 437.974 354.162 438.625 353.663C439.276 353.164 440.019 352.797 440.811 352.585C442.411 352.156 444.116 352.381 445.551 353.209C446.986 354.038 448.032 355.402 448.461 357.002C448.89 358.602 448.665 360.307 447.837 361.742C433.106 387.267 425.314 416.42 425.314 446.03C425.314 491.084 442.855 533.437 474.712 565.295C506.574 597.157 548.928 614.697 593.99 614.706L743.919 614.711C744.739 614.71 745.552 614.872 746.31 615.186C747.068 615.5 747.757 615.96 748.337 616.54C748.917 617.12 749.377 617.809 749.691 618.567C750.005 619.325 750.166 620.137 750.166 620.957C750.166 621.778 750.005 622.59 749.691 623.348C749.377 624.106 748.917 624.794 748.337 625.374C747.757 625.954 747.068 626.414 746.311 626.728C745.553 627.042 744.74 627.203 743.92 627.203L593.99 627.2C545.589 627.2 500.095 608.349 465.877 574.13Z" fill="#FF8906"/>
<path d="M538.747 538.739C514.995 514.987 500.281 482.188 500.281 446.021C500.275 441.55 500.497 437.081 500.945 432.632C501.027 431.815 501.268 431.023 501.656 430.3C502.044 429.577 502.571 428.938 503.206 428.419C503.842 427.899 504.573 427.51 505.358 427.274C506.144 427.037 506.969 426.958 507.785 427.04C508.602 427.121 509.395 427.363 510.118 427.751C510.841 428.139 511.481 428.666 512 429.301C512.52 429.937 512.909 430.669 513.145 431.455C513.381 432.241 513.46 433.066 513.377 433.882C512.971 437.918 512.767 441.97 512.768 446.026C512.777 477.724 525.133 507.524 547.556 529.947C569.972 552.363 599.772 564.717 631.465 564.723L781.399 564.722C813.097 564.722 842.906 552.376 865.325 529.957C887.744 507.538 900.098 477.736 900.099 446.039C900.081 380.572 846.832 327.323 781.399 327.339L631.47 327.326C623.492 327.333 615.534 328.132 607.714 329.712C604.335 330.389 601.026 328.211 600.353 324.829C600.19 324.025 600.187 323.197 600.345 322.392C600.502 321.587 600.817 320.821 601.27 320.137C601.724 319.454 602.308 318.866 602.989 318.409C603.669 317.951 604.433 317.632 605.238 317.469C613.873 315.723 622.66 314.84 631.47 314.834L781.398 314.847C853.729 314.834 912.578 373.701 912.59 446.039C912.587 481.073 898.938 514.013 874.158 538.793C849.375 563.576 816.435 577.225 781.397 577.215L631.468 577.211C595.302 577.211 562.508 562.5 538.747 538.739Z" fill="#FF8906"/>
<path d="M739.494 575.394C738.62 574.521 738.024 573.408 737.783 572.196C737.541 570.984 737.665 569.727 738.138 568.586C738.611 567.444 739.412 566.468 740.439 565.782C741.467 565.095 742.675 564.729 743.911 564.73C809.356 564.717 862.607 511.466 862.611 446.03C862.611 380.581 809.361 327.348 743.92 327.339C743.1 327.339 742.287 327.178 741.529 326.864C740.771 326.55 740.083 326.09 739.503 325.51C738.922 324.93 738.462 324.241 738.148 323.483C737.835 322.725 737.673 321.913 737.673 321.092C737.673 320.272 737.835 319.459 738.148 318.701C738.462 317.943 738.922 317.255 739.503 316.675C740.083 316.094 740.771 315.634 741.529 315.32C742.287 315.007 743.1 314.845 743.92 314.845C816.251 314.85 875.101 373.7 875.104 446.029C875.104 518.364 816.254 577.214 743.91 577.223C743.09 577.224 742.278 577.063 741.52 576.749C740.762 576.435 740.073 575.975 739.494 575.394ZM166.025 574.127L166.021 574.123C131.802 539.904 112.963 494.407 112.973 446.014C112.969 397.625 131.808 352.135 166.026 317.917C200.243 283.699 245.734 264.861 294.13 264.857L444.051 264.869C543.946 264.84 625.211 346.123 625.23 446.031C625.212 477.884 616.839 509.19 601.007 536.567C600.179 538.002 598.814 539.049 597.214 539.477C595.614 539.906 593.909 539.682 592.475 538.853C589.541 537.076 588.463 533.306 590.189 530.321C604.925 504.834 612.717 475.681 612.738 446.032C612.724 353.021 537.059 277.356 444.053 277.365L294.132 277.351C249.078 277.351 206.716 294.9 174.863 326.753C143.009 358.607 125.468 400.961 125.469 446.014C125.461 491.077 143 533.431 174.858 565.289C206.716 597.147 249.073 614.691 294.133 614.695L444.06 614.707C456.217 614.7 468.339 613.396 480.219 610.817C481.02 610.638 481.849 610.619 482.658 610.762C483.466 610.904 484.239 611.206 484.93 611.649C485.622 612.091 486.218 612.667 486.686 613.342C487.154 614.016 487.484 614.777 487.656 615.58C488.009 617.198 487.706 618.889 486.813 620.284C485.92 621.678 484.51 622.661 482.893 623.017C470.136 625.8 457.116 627.203 444.059 627.202L294.131 627.189C245.731 627.191 200.242 608.344 166.025 574.127Z" fill="#FF8906"/>
<path d="M128.542 574.122C94.3233 539.904 75.4767 494.415 75.4855 446.022C75.4811 397.634 94.3244 352.131 128.537 317.909C162.755 283.692 208.245 264.853 256.641 264.849L406.562 264.862C407.382 264.861 408.195 265.023 408.953 265.337C409.711 265.651 410.399 266.111 410.979 266.691C411.56 267.271 412.02 267.96 412.333 268.718C412.647 269.476 412.809 270.288 412.809 271.108C412.809 271.929 412.647 272.741 412.333 273.499C412.02 274.257 411.56 274.946 410.979 275.526C410.399 276.106 409.711 276.566 408.953 276.88C408.195 277.194 407.382 277.355 406.562 277.355L256.641 277.341C211.587 277.341 169.225 294.89 137.372 326.743C105.513 358.611 87.9737 400.963 87.9781 446.021C87.9781 491.077 105.518 533.43 137.376 565.288C169.233 597.145 211.586 614.685 256.642 614.685L406.562 614.689C407.382 614.689 408.195 614.851 408.953 615.165C409.711 615.478 410.399 615.939 410.979 616.519C411.56 617.099 412.02 617.787 412.333 618.545C412.647 619.303 412.809 620.116 412.809 620.936C412.809 621.757 412.647 622.569 412.333 623.327C412.02 624.085 411.56 624.774 410.979 625.354C410.399 625.934 409.711 626.394 408.953 626.708C408.195 627.022 407.382 627.183 406.562 627.183L256.641 627.178C208.248 627.186 162.759 608.34 128.542 574.122Z" fill="#FF8906"/>
<path d="M201.404 538.74C177.647 514.983 162.937 482.189 162.937 446.02C162.933 373.683 221.792 314.824 294.13 314.828L444.051 314.842C479.083 314.838 512.028 328.483 536.806 353.261L536.811 353.265C561.585 378.048 575.236 410.99 575.239 446.03C575.234 464.291 571.56 481.978 564.294 498.577C563.966 499.329 563.492 500.009 562.9 500.578C562.308 501.146 561.61 501.593 560.845 501.891C560.08 502.189 559.264 502.334 558.444 502.316C557.623 502.298 556.814 502.119 556.063 501.788C552.913 500.399 551.456 496.714 552.846 493.565C559.415 478.557 562.745 462.561 562.747 446.03C562.743 414.327 550.395 384.518 527.976 362.1C505.552 339.676 475.753 327.329 444.051 327.333L294.13 327.321C262.43 327.32 232.627 339.671 210.199 362.09C187.775 384.514 175.429 414.322 175.43 446.021C175.43 477.72 187.775 507.529 210.195 529.948C232.614 552.367 262.423 564.713 294.121 564.713L431.566 564.718C432.386 564.718 433.198 564.879 433.956 565.193C434.714 565.507 435.403 565.967 435.983 566.547C436.563 567.127 437.023 567.815 437.337 568.573C437.65 569.331 437.812 570.144 437.812 570.964C437.812 571.784 437.65 572.597 437.336 573.355C437.023 574.113 436.562 574.801 435.982 575.381C435.402 575.962 434.714 576.422 433.956 576.736C433.198 577.049 432.385 577.211 431.565 577.211L294.122 577.205C257.952 577.206 225.16 562.496 201.404 538.74Z" fill="#FF8906"/>
<path d="M526.439 463.217C525.781 462.562 525.279 461.768 524.968 460.892C524.657 460.017 524.546 459.084 524.644 458.16C525.053 454.128 525.26 450.078 525.263 446.025C525.253 380.583 472.003 327.333 406.57 327.332C405.75 327.333 404.938 327.171 404.18 326.857C403.422 326.544 402.733 326.084 402.153 325.504C401.573 324.924 401.113 324.235 400.8 323.477C400.486 322.719 400.324 321.907 400.325 321.087C400.324 320.266 400.486 319.454 400.8 318.696C401.113 317.938 401.573 317.25 402.153 316.67C402.733 316.09 403.422 315.63 404.18 315.316C404.938 315.002 405.75 314.841 406.57 314.841C478.904 314.831 537.745 373.69 537.759 446.029C537.755 450.507 537.525 454.982 537.068 459.436C536.946 460.61 536.494 461.726 535.765 462.653C535.035 463.581 534.058 464.284 532.946 464.679C531.834 465.075 530.633 465.147 529.481 464.889C528.33 464.63 527.275 464.05 526.439 463.217Z" fill="#FF8906"/>
<path d="M566.503 727.765C553.147 714.409 549.988 694.152 558.625 677.335C569.522 656.103 595.681 647.684 616.939 658.588C627.077 663.807 644.91 677.931 658.437 691.459C680.3 713.322 688.497 730.026 682.786 741.102C669.905 766.217 591.307 742.819 577.372 735.667C573.359 733.615 569.692 730.949 566.503 727.765ZM649.603 700.294C635.618 686.308 619.112 673.754 611.228 669.699C596.113 661.951 577.494 667.939 569.739 683.046C562.128 697.853 568.116 716.866 583.068 724.553C605.266 735.933 665.936 746.581 671.674 735.39C673.815 731.249 667.809 718.499 649.603 700.294Z" fill="url(#paint0_linear_126_132)"/>
<path d="M228.222 720.668C226.28 718.727 224.573 716.536 223.136 714.115C218.605 706.497 217.308 697.572 219.491 688.987C223.274 674.134 238.425 665.128 253.269 668.892C256.268 669.642 259.088 670.981 261.564 672.832C264.04 674.683 266.122 677.009 267.689 679.674C269.271 682.321 270.312 685.256 270.752 688.308C271.192 691.361 271.022 694.47 270.251 697.456C270.048 698.251 269.691 698.997 269.199 699.653C268.707 700.309 268.091 700.862 267.385 701.28C266.68 701.698 265.899 701.972 265.087 702.088C264.275 702.204 263.449 702.159 262.654 701.955C261.052 701.542 259.678 700.511 258.833 699.088C257.988 697.664 257.741 695.964 258.145 694.359C258.504 692.964 258.582 691.511 258.376 690.085C258.17 688.659 257.684 687.288 256.946 686.051C256.215 684.799 255.241 683.708 254.081 682.84C252.92 681.973 251.597 681.348 250.191 681.002C242.023 678.927 233.682 683.887 231.602 692.059C230.924 694.691 230.775 697.432 231.164 700.122C231.552 702.812 232.472 705.398 233.867 707.73C236.706 712.467 241.2 715.841 246.545 717.199C261.194 720.925 276.151 712.036 279.875 697.381C282.552 686.842 280.318 674.737 273.894 665.001C269.244 658.004 260.332 649.075 244.181 646.556C242.568 646.276 241.129 645.375 240.175 644.045C239.22 642.715 238.825 641.063 239.076 639.446C239.327 637.828 240.204 636.374 241.517 635.396C242.83 634.418 244.474 633.995 246.096 634.218C262.226 636.716 275.77 645.222 284.321 658.121C292.653 670.734 295.513 686.571 291.991 700.457C286.556 721.784 264.788 734.735 243.467 729.309C237.7 727.856 232.432 724.87 228.222 720.668Z" fill="url(#paint1_linear_126_132)"/>
<path d="M769.958 247.446C766.584 244.072 763.683 240.211 761.356 235.944C754.476 223.352 753.031 208.172 757.477 195.32C764.267 175.554 785.907 165.003 805.703 171.805C813.683 174.558 820.133 180.239 823.817 187.858C827.518 195.459 828.044 204.044 825.28 212.021C820.5 225.843 805.37 233.206 791.55 228.443C779.856 224.401 773.591 211.58 777.608 199.86C777.875 199.084 778.292 198.367 778.835 197.752C779.379 197.137 780.038 196.634 780.775 196.274C781.513 195.913 782.314 195.702 783.133 195.651C783.952 195.6 784.774 195.711 785.55 195.977C786.327 196.244 787.043 196.661 787.658 197.204C788.273 197.748 788.776 198.407 789.136 199.144C789.497 199.882 789.708 200.683 789.759 201.502C789.81 202.321 789.699 203.143 789.433 203.919C787.638 209.13 790.382 214.843 795.633 216.632C802.936 219.146 810.943 215.247 813.471 207.94C814.3 205.569 814.649 203.057 814.499 200.55C814.348 198.043 813.701 195.591 812.595 193.337C811.498 191.076 809.965 189.055 808.085 187.388C806.205 185.721 804.015 184.441 801.639 183.623C788.366 179.054 773.85 186.133 769.289 199.398C765.972 208.988 767.11 220.41 772.322 229.953C776.075 236.846 783.697 245.841 798.528 249.421C799.326 249.614 800.078 249.962 800.742 250.445C801.406 250.929 801.967 251.539 802.395 252.24C802.822 252.941 803.108 253.719 803.234 254.53C803.36 255.342 803.325 256.17 803.131 256.968C802.937 257.765 802.589 258.517 802.105 259.179C801.621 259.842 801.011 260.403 800.31 260.829C799.609 261.256 798.831 261.54 798.02 261.666C797.209 261.792 796.382 261.756 795.584 261.562C785.535 259.131 776.765 254.253 769.958 247.446Z" fill="url(#paint2_linear_126_132)"/>
<path d="M302.282 229.181C281.933 208.831 277.779 179.347 292.615 160.602C306.074 143.641 377.543 89.8849 405.539 112.016C433.427 134.116 396.993 216.718 384.065 233.055C367.537 253.878 333.596 254.577 308.399 234.625C306.258 232.928 304.216 231.11 302.282 229.181ZM398.616 122.554C380.549 108.189 317.295 149.607 302.407 168.359C290.441 183.493 296.186 209.021 316.159 224.836C335.955 240.509 362.028 240.715 374.271 225.297C388.72 207.037 414.241 138.179 398.616 122.554Z" fill="url(#paint3_linear_126_132)"/>
<defs>
<linearGradient id="paint0_linear_126_132" x1="684.452" y1="740.146" x2="556.466" y2="677.213" gradientUnits="userSpaceOnUse">
<stop stop-color="#FFC806"/>
<stop offset="1" stop-color="#FF8906"/>
</linearGradient>
<linearGradient id="paint1_linear_126_132" x1="236.854" y1="729.539" x2="249.228" y2="637.969" gradientUnits="userSpaceOnUse">
<stop stop-color="#FFC806"/>
<stop offset="1" stop-color="#FF8906"/>
</linearGradient>
<linearGradient id="paint2_linear_126_132" x1="821.413" y1="182.966" x2="763.446" y2="240.933" gradientUnits="userSpaceOnUse">
<stop stop-color="#FFC806"/>
<stop offset="1" stop-color="#FF8906"/>
</linearGradient>
<linearGradient id="paint3_linear_126_132" x1="414.434" y1="120.708" x2="304.122" y2="231.02" gradientUnits="userSpaceOnUse">
<stop stop-color="#FFC806"/>
<stop offset="1" stop-color="#FF8906"/>
</linearGradient>
</defs>
</svg>
