<svg width="57" height="38" viewBox="0 0 57 38" fill="none" xmlns="http://www.w3.org/2000/svg">
<path d="M18.48 4.72L16.56 4.336C15.024 4.336 12.9333 4.67733 10.288 5.36C7.64267 6 6.32 6.64 6.32 7.28C6.32 8.56 7.70667 10.0533 10.48 11.76C11.504 12.3573 12.4427 13.1893 13.296 14.256C14.192 15.28 14.64 16.304 14.64 17.328C14.64 18.352 14.3413 19.2693 13.744 20.08C13.1893 20.8907 12.6347 21.5093 12.08 21.936C11.568 22.32 10.9493 22.7467 10.224 23.216C9.49867 23.6853 9.05067 23.984 8.88 24.112C8.752 24.1973 8.51733 24.3467 8.176 24.56L7.408 25.072C7.23733 25.1573 7.00267 25.3067 6.704 25.52C6.448 25.6907 6.23467 25.84 6.064 25.968C5.89333 26.0533 5.70133 26.1813 5.488 26.352C5.31733 26.5227 5.168 26.6507 5.04 26.736C4.86933 26.864 4.74133 26.992 4.656 27.12C4.48533 27.3333 4.4 27.5467 4.4 27.76C4.4 29.168 5.424 30.5973 7.472 32.048C9.56267 33.456 11.952 34.16 14.64 34.16C20.144 34.16 24.368 33.6693 27.312 32.688C28.208 32.3893 28.72 32.24 28.848 32.24C30.128 32.24 30.768 32.88 30.768 34.16C30.768 35.0987 30.128 35.7813 28.848 36.208C25.264 37.4027 20.528 38 14.64 38C10.928 38 7.64267 36.9333 4.784 34.8C1.968 32.624 0.56 30.2773 0.56 27.76C0.56 25.8827 2.01067 24.0053 4.912 22.128C5.168 21.9573 5.552 21.7013 6.064 21.36C6.61867 21.0187 7.51467 20.4213 8.752 19.568C9.98933 18.7147 10.672 18.032 10.8 17.52C10.8 17.136 10.352 16.6027 9.456 15.92C8.60267 15.1947 7.664 14.4693 6.64 13.744C5.616 13.0187 4.656 12.08 3.76 10.928C2.90667 9.73333 2.48 8.496 2.48 7.216C2.48 5.89333 3.07733 4.76266 4.272 3.824C5.46667 2.84266 7.344 2.05333 9.904 1.456C12.464 0.815998 14.4267 0.495998 15.792 0.495998C17.2 0.495998 18.3093 0.709332 19.12 1.136C19.9733 1.56266 20.4 2.11733 20.4 2.8C20.4 4.08 19.76 4.72 18.48 4.72ZM32.974 34.288C32.9313 34.288 32.6113 34.4587 32.014 34.8C30.478 35.6533 29.3473 36.08 28.622 36.08C27.342 36.08 26.702 35.44 26.702 34.16C26.702 33.3493 27.342 32.688 28.622 32.176C28.8353 32.0907 29.3473 31.8347 30.158 31.408C30.9687 30.9813 31.438 30.7253 31.566 30.64C31.3953 30.256 31.31 29.68 31.31 28.912C31.31 25.072 32.654 21.7867 35.342 19.056C38.03 16.3253 40.4833 14.96 42.702 14.96C44.9207 14.96 46.67 15.4933 47.95 16.56C49.23 17.584 49.87 18.8427 49.87 20.336C49.87 21.7867 49.5287 23.0453 48.846 24.112C48.1633 25.1787 47.0967 26.224 45.646 27.248C43.6407 28.6987 40.718 30.384 36.878 32.304C38.5847 33.5413 40.9527 34.16 43.982 34.16C47.0113 34.16 49.998 33.6693 52.942 32.688C53.838 32.3893 54.35 32.24 54.478 32.24C55.758 32.24 56.398 32.88 56.398 34.16C56.398 35.0987 55.758 35.7813 54.478 36.208C50.894 37.4027 47.438 38 44.11 38C39.374 38 35.662 36.7627 32.974 34.288ZM35.15 28.912C42.4033 25.2853 46.03 22.5547 46.03 20.72C46.03 19.44 44.9633 18.8 42.83 18.8C41.55 18.8 39.95 19.824 38.03 21.872C36.11 23.8773 35.15 26.224 35.15 28.912Z" fill="#FF8906"/>
</svg>
